# xmcd CD database file
#
# Track frame offsets:
#	150
#	15651
#	33511
#	52498
#	70640
#	87035
#	106144
#	124326
#	149831
#	168615
#	186249
#	207380
#
# Disc length: 2959 seconds
#
# Revision: 0
# Processed by: cddbd v1.5.1PL0 Copyright (c) Steve Scherf et al.
# Submitted via: CDex 1.51
#
DISCID=b50b8d0c
DTITLE=Various Artist - Fin de Ano Bachatero
DYEAR=2003
DGENRE=Salsa
TTITLE0=Burrito Sabanero
TTITLE1=Triste Navidad
TTITLE2=Viejo Amigo
TTITLE3=No Tengo Suerte En El Amor
TTITLE4=Dame La Mano Paloma
TTITLE5=A Esos Hombres
TTITLE6=Ven, Dime Como Hago
TTITLE7=Juego De Amor
TTITLE8=Como Duele
TTITLE9=El Cuchillo
TTITLE10=Tu Seras Mi Vida
TTITLE11=El Bojio
EXTD=YEAR: 2003
EXTT0=
EXTT1=
EXTT2=
EXTT3=
EXTT4=
EXTT5=
EXTT6=
EXTT7=
EXTT8=
EXTT9=
EXTT10=
EXTT11=
PLAYORDER=
